<svg xmlns="http://www.w3.org/2000/svg" class="main__svg" width="300" height="175" fill="none" viewBox="0 0 180 105" aria-hidden="true"><path d="M5.021 92.9c-1.466 0-2.633-.367-3.5-1.1-.933-.667-1.4-1.467-1.4-2.4 0-.533.167-1.033.5-1.5.267-.4.634-.6 1.1-.6.734 0 1.267.267 1.6.8l1 1.8c.4.8 1.034 1.2 1.9 1.2 1.267 0 2.834-.733 4.7-2.2 2.734-2.067 4.967-4.733 6.7-8 1.667-3.2 3.134-6.633 4.4-10.3 1.6-4.533 2.867-9.733 3.8-15.6 1-5.867 1.967-11.767 2.9-17.7-.8.067-1.6.167-2.4.3-.8.067-1.566.133-2.3.2-.2 0-.5-.2-.9-.6-.4-.4-.733-.8-1-1.2-.2-.467-.2-.7 0-.7 2.467-.267 4.8-.467 7-.6.467-2.933.967-5.8 1.5-8.6a113.263 113.263 0 011.8-8.1 66.835 66.835 0 012.6-7.8c1.134-2.667 2.434-4.9 3.9-6.7 1.534-1.867 3.234-2.8 5.1-2.8 1.534 0 3 .5 4.4 1.5 1.4 1 2.1 2.5 2.1 4.5 0 1.067-.3 2.333-.9 3.8-.6 1.467-1.633 3.067-3.1 4.8-.2.2-.333.3-.4.3-.266 0-.4-.267-.4-.8s.134-.967.4-1.3c1.534-2 2.3-3.833 2.3-5.5 0-1.933-.833-2.9-2.5-2.9-1.466 0-3.1 1.1-4.9 3.3-1.8 2.2-3.4 5.767-4.8 10.7-.533 1.867-1.033 4-1.5 6.4a156.29 156.29 0 01-1.8 8l-.3 1.2c2.267 0 4.234.133 5.9.4 1.734.2 3.034.433 3.9.7.2.067.3.2.3.4 0 .333-.2.5-.6.5-1.4 0-2.966.033-4.7.1-1.666.067-3.4.167-5.2.3-1.066 6-2.2 12.067-3.4 18.2-1.133 6.133-2.566 11.6-4.3 16.4-1.6 4.467-3.466 8.433-5.6 11.9-2.2 3.467-4.7 5.967-7.5 7.5-2.266 1.2-4.4 1.8-6.4 1.8zM39.488 73c-.467 0-.633-.367-.5-1.1.467-3.533 1.467-7.267 3-11.2a76.392 76.392 0 015.8-11.4c-1.067-2.333-1.933-4.467-2.6-6.4-.6-2-1.033-3.433-1.3-4.3-.4-1.6-.6-2.933-.6-4 0-1.067.467-1.6 1.4-1.6.8 0 1.567.367 2.3 1.1.8.733 1.367 1.5 1.7 2.3.6 1.267.967 2.433 1.1 3.5.133 1.067.3 2.167.5 3.3l.3 1.8c1.6-2.267 3.267-4.4 5-6.4 1.8-2 3.6-3.767 5.4-5.3.2-.2.433-.3.7-.3.467 0 .833.267 1.1.8.333.467.5 1.033.5 1.7 0 .6-.2 1.1-.6 1.5a75.298 75.298 0 00-5.8 5.6 85.79 85.79 0 00-5.5 6.5c.333 1.667.867 3.367 1.6 5.1.733 1.667 1.933 3.667 3.6 6 1.333 1.867 2.333 2.8 3 2.8.533 0 .867-.367 1-1.1.2-.8.3-1.767.3-2.9 0-1.533-.133-3.2-.4-5-.2-1.8-.433-3.433-.7-4.9-.2-1.467-.333-2.367-.4-2.7-.067-.267-.1-.5-.1-.7v-.6c0-.6.133-.9.4-.9.2 0 .467.2.8.6.333.4.567.867.7 1.4.4 1.067.767 2.467 1.1 4.2.4 1.667.733 3.333 1 5 .267 1.6.4 2.867.4 3.8 0 1.4-.267 2.7-.8 3.9-.467 1.2-1.267 1.8-2.4 1.8-1.467 0-2.933-.7-4.4-2.1-1.4-1.4-2.7-3.067-3.9-5-1.2-2-2.233-3.833-3.1-5.5-2 2.933-3.7 5.967-5.1 9.1-1.333 3.133-2.233 6.267-2.7 9.4-.067.667-.3 1.2-.7 1.6-.4.4-.767.6-1.1.6zm39.258 9.5c-1.534 0-2.7-.633-3.5-1.9-.734-1.267-1.1-2.733-1.1-4.4 0-2 .366-4.3 1.1-6.9a86.815 86.815 0 012.9-7.8 174.92 174.92 0 013.5-7.9 287.53 287.53 0 003.3-6.8c1-2 1.666-3.533 2-4.6.4-1.2.6-2.1.6-2.7 0-.667-.234-1-.7-1-.534 0-1.334.433-2.4 1.3-1 .8-2 1.7-3 2.7-.934 1-1.6 1.733-2 2.2-2.134 2.4-4.067 5.067-5.8 8-1.667 2.933-2.7 5.433-3.1 7.5-.067.333-.2.933-.4 1.8-.134.867-.434 1.267-.9 1.2-.667-.133-1.134-.533-1.4-1.2-.2-.733-.334-1.4-.4-2 0-.333-.034-.667-.1-1v-1.2c0-3.267.366-6.967 1.1-11.1a162.23 162.23 0 012.8-12.7c1.2-4.333 2.466-8.367 3.8-12.1 1.333-3.733 2.6-6.833 3.8-9.3.6-1.2 1.266-2.333 2-3.4.733-1.133 1.466-1.7 2.2-1.7.466 0 .866.233 1.2.7.4.467.6.867.6 1.2 0 .267-.467 1.333-1.4 3.2-.867 1.8-2 4.2-3.4 7.2-1.4 2.933-2.834 6.3-4.3 10.1-1.4 3.8-2.667 7.867-3.8 12.2a80.432 80.432 0 00-2.3 13.2c0 .067-.034.4-.1 1l-.2 1.8v.9-.1h.1c.133-.8.366-1.567.7-2.3.4-.733.8-1.433 1.2-2.1 2-4 4.566-7.833 7.7-11.5 1.533-1.733 3.133-3.233 4.8-4.5 1.666-1.333 3.4-2 5.2-2 .733 0 1.366.2 1.9.6.533.4.8 1.167.8 2.3 0 1.467-.5 3.2-1.5 5.2-.934 1.933-2.1 3.967-3.5 6.1a255.668 255.668 0 00-3.7 5.9 74.326 74.326 0 00-4.2 8.3 23.079 23.079 0 00-1.8 9c0 .933.066 1.933.2 3 .2 1.067.5 1.967.9 2.7.466.8 1.1 1.2 1.9 1.2.533 0 1.033-.167 1.5-.5.533-.267.966-.533 1.3-.8.6-.6 1-.9 1.2-.9.2 0 .3.1.3.3 0 .4-.167.767-.5 1.1-.334.4-.667.7-1 .9-.467.4-1.1.767-1.9 1.1-.734.333-1.467.5-2.2.5zM89.683 73c-.467 0-.633-.367-.5-1.1.467-3.533 1.467-7.267 3-11.2a76.392 76.392 0 015.8-11.4c-1.067-2.333-1.933-4.467-2.6-6.4-.6-2-1.033-3.433-1.3-4.3-.4-1.6-.6-2.933-.6-4 0-1.067.467-1.6 1.4-1.6.8 0 1.567.367 2.3 1.1.8.733 1.367 1.5 1.7 2.3.6 1.267.967 2.433 1.1 3.5.134 1.067.3 2.167.5 3.3l.3 1.8c1.6-2.267 3.267-4.4 5-6.4 1.8-2 3.6-3.767 5.4-5.3.2-.2.434-.3.7-.3.467 0 .834.267 1.1.8.334.467.5 1.033.5 1.7 0 .6-.2 1.1-.6 1.5a75.48 75.48 0 00-5.8 5.6 86.023 86.023 0 00-5.5 6.5c.334 1.667.867 3.367 1.6 5.1.734 1.667 1.934 3.667 3.6 6 1.334 1.867 2.334 2.8 3 2.8.534 0 .867-.367 1-1.1.2-.8.3-1.767.3-2.9 0-1.533-.133-3.2-.4-5-.2-1.8-.433-3.433-.7-4.9-.2-1.467-.333-2.367-.4-2.7-.066-.267-.1-.5-.1-.7v-.6c0-.6.134-.9.4-.9.2 0 .467.2.8.6.334.4.567.867.7 1.4.4 1.067.767 2.467 1.1 4.2.4 1.667.734 3.333 1 5 .267 1.6.4 2.867.4 3.8 0 1.4-.266 2.7-.8 3.9-.466 1.2-1.266 1.8-2.4 1.8-1.466 0-2.933-.7-4.4-2.1-1.4-1.4-2.7-3.067-3.9-5-1.2-2-2.233-3.833-3.1-5.5-2 2.933-3.7 5.967-5.1 9.1-1.333 3.133-2.233 6.267-2.7 9.4-.067.667-.3 1.2-.7 1.6-.4.4-.767.6-1.1.6zm28.858 31.3c-2.6 0-4.7-.7-6.3-2.1-1.6-1.333-2.4-3.133-2.4-5.4 0-2 .567-4 1.7-6 1.067-1.933 2.4-3.8 4-5.6 1.667-1.733 3.333-3.267 5-4.6 2.933-2.333 6.4-4.533 10.4-6.6 4.067-2.067 8.633-3.633 13.7-4.7.067-.733.1-1.5.1-2.3v-2.2c0-5.4-.367-10.3-1.1-14.7-.733-4.467-1.567-8.3-2.5-11.5-2.667 6.6-5.033 12.1-7.1 16.5-2.067 4.333-3.2 7.967-3.4 10.9-.067.467-.367.967-.9 1.5-.467.6-1 .9-1.6.9-.4 0-.8-.233-1.2-.7-.333-.4-.567-1.133-.7-2.2 0-.267-.033-.633-.1-1.1v-7.9c0-2.133-.067-4.3-.2-6.5-.067-2.267-.3-4.367-.7-6.3-.4-1.933-1-3.5-1.8-4.7-.733-1.2-1.767-1.8-3.1-1.8-1.067 0-2.067.4-3 1.2-.867.8-1.6 1.6-2.2 2.4-.6.733-1.067 1.1-1.4 1.1-.267 0-.4-.1-.4-.3 0-.133.1-.333.3-.6.133-.333.267-.6.4-.8.6-.867 1.367-1.733 2.3-2.6 1-.867 2.033-1.6 3.1-2.2 1.133-.667 2.133-1 3-1 1.8 0 3.2.933 4.2 2.8 1 1.8 1.7 4.1 2.1 6.9.467 2.8.7 5.667.7 8.6 0 1.267-.067 2.8-.2 4.6-.133 1.8-.3 3.333-.5 4.6 1.333-2.467 3.033-5.9 5.1-10.3a837.04 837.04 0 006.8-14.9l-.9-2.6v-.3c0-.667.2-1.167.6-1.5.467-.333.933-.5 1.4-.5.4 0 .8.1 1.2.3.4.2.667.5.8.9.8 1.8 1.467 4.267 2 7.4.6 3.133 1.033 6.533 1.3 10.2.333 3.6.5 7.167.5 10.7 0 2.667-.1 5.167-.3 7.5 1.667-.333 3.433-.6 5.3-.8 1.933-.2 3.6-.3 5-.3.867 0 1.3.133 1.3.4 0 .533-.7.867-2.1 1-1.6.133-3.233.3-4.9.5-1.6.267-3.233.6-4.9 1-1.4 7.667-3.6 13.8-6.6 18.4-2.933 4.667-5.967 8.167-9.1 10.5-2.267 1.667-4.5 2.867-6.7 3.6-2.133.8-4.133 1.2-6 1.2zm-.8-2.1c1.133 0 2.433-.233 3.9-.7 1.533-.467 3.133-1.2 4.8-2.2 5.333-3.133 9.467-7.1 12.4-11.9 2.933-4.733 4.8-10.133 5.6-16.2-3.933 1.067-7.9 2.6-11.9 4.6-3.933 2.067-7.533 4.467-10.8 7.2a52.93 52.93 0 00-4.4 4.3c-1.4 1.6-2.567 3.233-3.5 4.9-.933 1.733-1.4 3.4-1.4 5 0 1.533.467 2.733 1.4 3.6.933.933 2.233 1.4 3.9 1.4zm34.88-39.6c-.6 0-.8-.367-.6-1.1.8-3.2 2.1-6.1 3.9-8.7 1.866-2.667 4.066-5.2 6.6-7.6 2.6-2.4 5.366-4.833 8.3-7.3-1.134.133-2.067.3-2.8.5-.734.2-1.867.3-3.4.3-1.334 0-2.767-.1-4.3-.3-1.467-.267-2.734-.667-3.8-1.2-1.067-.533-1.6-1.3-1.6-2.3 0-.8.2-1.467.6-2 .466-.533.966-1.033 1.5-1.5.333-.333.633-.5.9-.5.266 0 .4.167.4.5 0 .4-.2.8-.6 1.2-.534.533-.8 1-.8 1.4 0 .667.6 1.167 1.8 1.5 1.266.267 2.766.4 4.5.4 2 0 4.066-.167 6.2-.5 2.2-.333 3.933-.733 5.2-1.2.8-.333 1.366-.6 1.7-.8.4-.267.733-.4 1-.4.533 0 .966.3 1.3.9.4.6.6 1.233.6 1.9 0 .8-.267 1.333-.8 1.6-3.267 1.933-6.5 3.9-9.7 5.9-3.2 1.933-6.034 4.2-8.5 6.8-2.467 2.6-4.3 5.867-5.5 9.8 1.066-.667 2.5-1.4 4.3-2.2a41.342 41.342 0 015.9-2.2c2.133-.667 4.066-1 5.8-1 2.133 0 3.466.4 4 1.2.6.733.9 1.4.9 2 0 .533-.034 1.067-.1 1.6 0 .467-.067.867-.2 1.2-.267.6-.6.9-1 .9-.267 0-.3-.2-.1-.6.133-.2.233-.367.3-.5.066-.2.1-.433.1-.7 0-.867-.767-1.433-2.3-1.7a26.805 26.805 0 00-4.6-.4c-2.067 0-4.367.467-6.9 1.4-2.467.867-4.5 1.767-6.1 2.7-1.267.667-1.967 1-2.1 1z" class="fill" stroke-dasharray="1591.305" stroke="#FFF"/></svg>